<svg width="18" height="21" viewBox="0 0 18 21" fill="none" xmlns="http://www.w3.org/2000/svg">
<path d="M15.75 8.75C15.75 14 9 18.5 9 18.5C9 18.5 2.25 14 2.25 8.75C2.25 6.95979 2.96116 5.2429 4.22703 3.97703C5.4929 2.71116 7.20979 2 9 2C10.7902 2 12.5071 2.71116 13.773 3.97703C15.0388 5.2429 15.75 6.95979 15.75 8.75Z" stroke="#3AA9E9" stroke-width="1.5" stroke-linecap="round" stroke-linejoin="round"/>
<path d="M9 9.75C10.2426 9.75 11.25 8.74264 11.25 7.5C11.25 6.25736 10.2426 5.25 9 5.25C7.75736 5.25 6.75 6.25736 6.75 7.5C6.75 8.74264 7.75736 9.75 9 9.75Z" stroke="#3AA9E9" stroke-width="1.5" stroke-linecap="round" stroke-linejoin="round"/>
</svg>
